<?xml version="1.0" encoding="utf-8"?>
<!-- Generator: Adobe Illustrator 19.0.0, SVG Export Plug-In . SVG Version: 6.00 Build 0)  -->
<svg version="1.1" id="Layer_1" xmlns="http://www.w3.org/2000/svg" xmlns:xlink="http://www.w3.org/1999/xlink" x="0px" y="0px"
	 viewBox="0 0 512 512" enable-background="new 0 0 512 512" xml:space="preserve">
<path id="XMLID_1_" fill="none" stroke="#000000" stroke-width="5" stroke-miterlimit="10" d="M260.5,43.8l62.2,126.4
	c0.7,1.5,2.1,2.5,3.8,2.7L466,193.1c4.1,0.6,5.7,5.6,2.8,8.5l-101,98.3c-1.2,1.1-1.7,2.8-1.4,4.4l24,138.9c0.7,4.1-3.6,7.2-7.3,5.3
	l-124.7-65.7c-1.5-0.8-3.2-0.8-4.7,0L129,448.4c-3.7,1.9-8-1.2-7.3-5.3l24-138.9c0.3-1.6-0.3-3.3-1.4-4.4l-101-98.3
	c-3-2.9-1.3-7.9,2.8-8.5l139.5-20.1c1.6-0.2,3-1.3,3.8-2.7l62.2-126.4C253.3,40,258.7,40,260.5,43.8z"/>
</svg>
